<?xml version="1.0" encoding="UTF-8" standalone="no"?>
<!DOCTYPE svg PUBLIC "-//W3C//DTD SVG 1.1//EN" "http://www.w3.org/Graphics/SVG/1.1/DTD/svg11.dtd">
<svg width="100%" height="100%" viewBox="0 0 686 203" version="1.1" xmlns="http://www.w3.org/2000/svg" xmlns:xlink="http://www.w3.org/1999/xlink" xml:space="preserve" xmlns:serif="http://www.serif.com/" style="fill-rule:evenodd;clip-rule:evenodd;stroke-miterlimit:10;">
    <g transform="matrix(1,0,0,1,-11360,-1213)">
        <g id="Page-3" serif:id="Page 3" transform="matrix(0.814833,0,0,0.341016,11360,1213)">
            <rect x="0" y="0" width="841.89" height="595.28" style="fill:none;"/>
            <clipPath id="_clip1">
                <rect x="0" y="0" width="841.89" height="595.28"/>
            </clipPath>
            <g clip-path="url(#_clip1)">
                <g id="Layer-1" serif:id="Layer 1" transform="matrix(3.272653,0,0,7.81977,-1632.235714,-3442.653793)">
                    <g transform="matrix(0,-1,-1,0,536.7928,443.6158)">
                        <path d="M-35.694,-35.695C-55.407,-35.695 -71.389,-19.715 -71.389,-0.002C-71.389,19.711 -55.407,35.694 -35.694,35.694C-15.982,35.694 0.001,19.711 0.001,-0.002C0.001,-19.715 -15.982,-35.695 -35.694,-35.695" style="fill:rgb(28,44,55);fill-rule:nonzero;"/>
                    </g>
                    <g transform="matrix(0,-1,-1,0,536.7928,443.6158)">
                        <ellipse cx="-35.694" cy="-0.001" rx="35.695" ry="35.694" style="fill:none;stroke:white;stroke-width:0.75px;"/>
                    </g>
                    <g transform="matrix(1,0,0,1,531.585,477.0473)">
                        <path d="M0,-4.239L6.733,-4.239C11.42,-4.239 14.663,-7.081 14.663,-11.121C14.663,-14.013 12.817,-15.808 8.777,-15.808L2.044,-15.808L0,-4.239ZM-2.793,11.572L5.436,11.572C10.771,11.572 13.565,8.428 13.565,3.891C13.565,0.598 11.42,-1.345 7.729,-1.345L-0.499,-1.345L-2.793,11.572ZM-5.038,14.663C-5.935,14.663 -6.583,13.915 -6.433,12.967L-1.097,-17.205C-0.948,-18.153 0,-18.902 0.897,-18.902L9.376,-18.902C15.46,-18.902 18.153,-16.058 18.153,-11.72C18.153,-7.331 15.312,-4.138 11.97,-3.241C14.912,-2.493 17.056,-0.299 17.056,3.541C17.056,9.925 13.067,14.663 4.937,14.663L-5.038,14.663Z" style="fill:white;fill-rule:nonzero;"/>
                    </g>
                    <g transform="matrix(1,0,0,1,546.9922,499.9665)">
                        <path d="M0,0.001C0,0.708 -0.573,1.282 -1.281,1.282L-22.195,1.282C-22.904,1.282 -23.478,0.708 -23.478,0.001C-23.478,-0.708 -22.904,-1.281 -22.195,-1.281L-1.281,-1.281C-0.573,-1.281 0,-0.708 0,0.001" style="fill:rgb(140,194,100);fill-rule:nonzero;"/>
                    </g>
                    <g transform="matrix(1,0,0,1,605.6855,483.0014)">
                        <path d="M0,-5.487L8.719,-5.487C14.787,-5.487 18.983,-9.169 18.983,-14.398C18.983,-18.143 16.596,-20.466 11.364,-20.466L2.648,-20.466L0,-5.487ZM-3.614,14.98L7.039,14.98C13.947,14.98 17.562,10.912 17.562,5.036C17.562,0.775 14.787,-1.743 10.009,-1.743L-0.645,-1.743L-3.614,14.98ZM-6.521,18.983C-7.682,18.983 -8.521,18.015 -8.328,16.787L-1.42,-22.275C-1.226,-23.503 0,-24.47 1.164,-24.47L12.14,-24.47C20.017,-24.47 23.504,-20.791 23.504,-15.173C23.504,-9.491 19.823,-5.358 15.498,-4.196C19.307,-3.227 22.083,-0.386 22.083,4.584C22.083,12.849 16.918,18.983 6.394,18.983L-6.521,18.983Z" style="fill:white;fill-rule:nonzero;"/>
                    </g>
                    <g transform="matrix(1,0,0,1,706.9883,498.8846)">
                        <path d="M0,-37.254C-7.619,-37.254 -10.653,-33.187 -10.653,-29.312C-10.653,-20.274 10.201,-23.114 10.201,-10.395C10.201,-1.483 4.132,4.004 -7.684,4.004C-15.303,4.004 -19.951,-0.128 -21.372,-4.325C-21.5,-4.714 -21.5,-4.905 -21.5,-5.101C-21.5,-6.263 -20.597,-7.166 -19.435,-7.166C-18.595,-7.166 -17.82,-6.65 -17.562,-6.004C-16.076,-2.648 -12.654,0.001 -6.973,0.001C1.098,0.001 5.746,-3.808 5.746,-9.62C5.746,-19.692 -15.174,-16.27 -15.174,-28.86C-15.174,-35.511 -9.878,-41.258 0.711,-41.258C6.715,-41.258 11.687,-38.482 13.365,-34.284C13.494,-33.962 13.559,-33.703 13.559,-33.381C13.559,-32.218 12.656,-31.315 11.494,-31.315C10.912,-31.315 10.267,-31.572 9.814,-32.282C8.2,-34.865 5.424,-37.254 0,-37.254" style="fill:white;fill-rule:nonzero;"/>
                    </g>
                    <g transform="matrix(1,0,0,1,723.8398,498.3688)">
                        <path d="M0,-35.706C-1.033,-35.706 -1.742,-36.479 -1.742,-37.448C-1.742,-38.74 -0.581,-39.838 0.711,-39.838L28.151,-39.838C29.184,-39.838 29.895,-39.063 29.895,-38.095C29.895,-36.804 28.732,-35.706 27.441,-35.706L15.948,-35.706L9.298,1.937C9.104,3.164 7.941,4.132 6.715,4.132C5.488,4.132 4.713,3.164 4.907,1.937L11.558,-35.706L0,-35.706Z" style="fill:white;fill-rule:nonzero;"/>
                    </g>
                    <g transform="matrix(1,0,0,1,654.417,476.9192)">
                        <path d="M0,-7.94C0,-13.364 -2.712,-15.753 -7.62,-15.753C-16.142,-15.753 -19.435,-8.005 -19.435,0.001C-19.435,5.425 -16.724,7.814 -11.816,7.814C-3.293,7.814 0,0.066 0,-7.94M-23.632,0.517C-23.632,-9.554 -18.854,-19.499 -6.974,-19.499C0.065,-19.499 4.196,-15.946 4.196,-8.456C4.196,1.616 -0.581,11.559 -12.462,11.559C-19.499,11.559 -23.632,8.007 -23.632,0.517" style="fill:white;fill-rule:nonzero;"/>
                    </g>
                    <g transform="matrix(1,0,0,1,684.7627,476.9192)">
                        <path d="M0,-7.94C0,-13.364 -2.712,-15.753 -7.62,-15.753C-16.142,-15.753 -19.435,-8.005 -19.435,0.001C-19.435,5.425 -16.724,7.814 -11.816,7.814C-3.294,7.814 0,0.066 0,-7.94M-23.632,0.517C-23.632,-9.554 -18.854,-19.499 -6.974,-19.499C0.063,-19.499 4.196,-15.946 4.196,-8.456C4.196,1.616 -0.581,11.559 -12.462,11.559C-19.5,11.559 -23.632,8.007 -23.632,0.517" style="fill:white;fill-rule:nonzero;"/>
                    </g>
                    <g transform="matrix(1,0,0,1,681.3711,500.0456)">
                        <path d="M0,0.002C0,1.071 -0.869,1.939 -1.937,1.939L-50.963,1.939C-52.032,1.939 -52.9,1.071 -52.9,0.002C-52.9,-1.068 -52.032,-1.937 -50.963,-1.937L-1.937,-1.937C-0.869,-1.937 0,-1.068 0,0.002" style="fill:rgb(140,194,100);fill-rule:nonzero;"/>
                    </g>
                </g>
            </g>
        </g>
    </g>
</svg>
