<?xml version="1.0" encoding="UTF-8" standalone="no"?><!DOCTYPE svg PUBLIC "-//W3C//DTD SVG 1.1//EN" "http://www.w3.org/Graphics/SVG/1.1/DTD/svg11.dtd"><svg width="100%" height="100%" viewBox="0 0 1074 335" version="1.1" xmlns="http://www.w3.org/2000/svg" xmlns:xlink="http://www.w3.org/1999/xlink" xml:space="preserve" xmlns:serif="http://www.serif.com/" style="fill-rule:evenodd;clip-rule:evenodd;stroke-linejoin:round;stroke-miterlimit:2;"><rect id="Page-1" serif:id="Page 1" x="0" y="0" width="1073.437" height="334.375" style="fill:none;"/><g id="Layer-1" serif:id="Layer 1"><path d="M312.223,177.878c0,82.142 -66.583,148.738 -148.721,148.738c-82.137,0 -148.733,-66.596 -148.733,-148.738c0,-82.129 66.596,-148.725 148.733,-148.725c82.138,0 148.721,66.596 148.721,148.725" style="fill:#1c2c37;fill-rule:nonzero;"/><path d="M141.793,150.793l28.054,0c19.529,0 33.042,-11.842 33.042,-28.675c0,-12.054 -7.692,-19.529 -24.525,-19.529l-28.054,0l-8.517,48.204Zm-11.637,65.879l34.287,0c22.229,0 33.871,-13.1 33.871,-32.008c0,-13.717 -8.938,-21.817 -24.317,-21.817l-34.283,0l-9.558,53.825Zm-9.354,12.879c-3.737,0 -6.438,-3.117 -5.813,-7.067l22.233,-125.717c0.621,-3.95 4.571,-7.071 8.308,-7.071l35.329,0c25.35,0 36.571,11.85 36.571,29.925c0,18.287 -11.837,31.592 -25.762,35.329c12.258,3.117 21.192,12.258 21.192,28.258c0,26.6 -16.621,46.342 -50.496,46.342l-41.562,0Z" style="fill:#fff;fill-rule:nonzero;"/><path d="M205.99,263.955c0,2.946 -2.387,5.337 -5.338,5.337l-87.142,0c-2.954,0 -5.346,-2.392 -5.346,-5.337c0,-2.954 2.392,-5.342 5.346,-5.342l87.142,0c2.95,0 5.338,2.387 5.338,5.342" style="fill:#8cc264;fill-rule:nonzero;"/><path d="M450.545,170.399l36.329,0c25.283,0 42.767,-15.337 42.767,-37.129c0,-15.604 -9.946,-25.283 -31.746,-25.283l-36.317,0l-11.033,62.412Zm-15.058,85.279l44.387,0c28.783,0 43.846,-16.946 43.846,-41.429c0,-17.758 -11.562,-28.246 -31.471,-28.246l-44.392,0l-12.371,69.675Zm-12.113,16.679c-4.837,0 -8.333,-4.033 -7.529,-9.146l28.783,-162.762c0.808,-5.112 5.917,-9.146 10.767,-9.146l45.733,0c32.821,0 47.35,15.333 47.35,38.742c0,23.671 -15.337,40.892 -33.358,45.737c15.871,4.033 27.437,15.871 27.437,36.583c0,34.433 -21.521,59.992 -65.371,59.992l-53.812,0Z" style="fill:#fff;fill-rule:nonzero;"/><path d="M872.64,104.218c-31.746,0 -44.388,16.946 -44.388,33.092c0,37.658 86.892,25.825 86.892,78.821c0,37.133 -25.287,59.996 -74.521,59.996c-31.746,0 -51.112,-17.217 -57.033,-34.704c-0.533,-1.621 -0.533,-2.417 -0.533,-3.233c0,-4.842 3.762,-8.604 8.604,-8.604c3.5,0 6.729,2.15 7.804,4.842c6.192,13.983 20.45,25.021 44.121,25.021c33.629,0 52.996,-15.871 52.996,-40.087c0,-41.967 -87.167,-27.708 -87.167,-80.167c0,-27.712 22.067,-51.658 66.188,-51.658c25.017,0 45.733,11.567 52.725,29.058c0.538,1.342 0.808,2.421 0.808,3.762c0,4.846 -3.762,8.608 -8.604,8.608c-2.425,0 -5.112,-1.071 -7,-4.033c-6.725,-10.758 -18.292,-20.713 -40.892,-20.713" style="fill:#fff;fill-rule:nonzero;"/><path d="M942.855,108.521c-4.304,0 -7.258,-3.225 -7.258,-7.262c0,-5.383 4.837,-9.954 10.221,-9.954l114.333,0c4.304,0 7.267,3.229 7.267,7.262c0,5.375 -4.846,9.954 -10.225,9.954l-47.888,0l-27.708,156.842c-0.808,5.117 -5.654,9.146 -10.763,9.146c-5.112,0 -8.342,-4.029 -7.533,-9.146l27.712,-156.842l-48.158,0Z" style="fill:#fff;fill-rule:nonzero;"/><path d="M653.593,134.836c0,-22.596 -11.3,-32.554 -31.75,-32.554c-35.508,0 -49.229,32.283 -49.229,65.642c0,22.604 11.296,32.554 31.746,32.554c35.513,0 49.233,-32.283 49.233,-65.642m-98.467,35.242c0,-41.967 19.908,-83.4 69.408,-83.4c29.329,0 46.542,14.8 46.542,46.008c0,41.967 -19.904,83.4 -69.408,83.4c-29.321,0 -46.542,-14.8 -46.542,-46.008" style="fill:#fff;fill-rule:nonzero;"/><path d="M780.033,134.836c0,-22.596 -11.3,-32.554 -31.75,-32.554c-35.508,0 -49.229,32.283 -49.229,65.642c0,22.604 11.296,32.554 31.746,32.554c35.508,0 49.233,-32.283 49.233,-65.642m-98.467,35.242c0,-41.967 19.908,-83.4 69.408,-83.4c29.321,0 46.542,14.8 46.542,46.008c0,41.967 -19.904,83.4 -69.408,83.4c-29.325,0 -46.542,-14.8 -46.542,-46.008" style="fill:#fff;fill-rule:nonzero;"/><path d="M765.902,264.289c0,4.454 -3.621,8.071 -8.071,8.071l-204.275,0c-4.454,0 -8.071,-3.617 -8.071,-8.071c0,-4.458 3.617,-8.079 8.071,-8.079l204.275,0c4.45,0 8.071,3.621 8.071,8.079" style="fill:#8cc264;fill-rule:nonzero;"/></g></svg>
