<?xml version="1.0" encoding="UTF-8" standalone="no"?><!DOCTYPE svg PUBLIC "-//W3C//DTD SVG 1.1//EN" "http://www.w3.org/Graphics/SVG/1.1/DTD/svg11.dtd"><svg width="100%" height="100%" viewBox="0 0 300 300" version="1.1" xmlns="http://www.w3.org/2000/svg" xmlns:xlink="http://www.w3.org/1999/xlink" xml:space="preserve" xmlns:serif="http://www.serif.com/" style="fill-rule:evenodd;clip-rule:evenodd;stroke-linejoin:round;stroke-miterlimit:2;"><rect id="Page-3" serif:id="Page 3" x="0" y="0" width="300" height="300" style="fill:none;"/><g id="Layer-1" serif:id="Layer 1"><g><path d="M299.54,149.537c0,82.142 -66.583,148.733 -148.721,148.733c-82.137,0 -148.733,-66.592 -148.733,-148.733c0,-82.133 66.596,-148.725 148.733,-148.725c82.138,-0 148.721,66.592 148.721,148.725" style="fill:#1c2c37;fill-rule:nonzero;"/><path d="M129.109,122.45l28.054,0c19.529,0 33.042,-11.842 33.042,-28.675c0,-12.05 -7.692,-19.529 -24.525,-19.529l-28.054,0l-8.517,48.204Zm-11.638,65.879l34.288,0c22.229,0 33.871,-13.1 33.871,-32.004c0,-13.721 -8.938,-21.817 -24.317,-21.817l-34.283,0l-9.558,53.821Zm-9.354,12.879c-3.737,0 -6.438,-3.117 -5.812,-7.067l22.233,-125.717c0.621,-3.95 4.571,-7.071 8.308,-7.071l35.329,0c25.35,0 36.571,11.85 36.571,29.925c0,18.287 -11.838,31.592 -25.763,35.329c12.258,3.117 21.192,12.258 21.192,28.258c0,26.6 -16.621,46.342 -50.496,46.342l-41.562,0Z" style="fill:#fff;fill-rule:nonzero;"/><path d="M193.306,235.613c0,2.946 -2.387,5.338 -5.338,5.338l-87.142,0c-2.954,0 -5.346,-2.392 -5.346,-5.338c0,-2.954 2.392,-5.342 5.346,-5.342l87.142,0c2.95,0 5.338,2.388 5.338,5.342" style="fill:#8cc264;fill-rule:nonzero;"/></g></g></svg>
